<svg id="Capa_1" enable-background="new 0 0 512 512" height="512" viewBox="0 0 512 512" width="512" xmlns="http://www.w3.org/2000/svg"><g><path d="m301 366h-90c-8.284 0-15 6.716-15 15v80c0 8.284 6.716 15 15 15h90c8.284 0 15-6.716 15-15v-80c0-8.284-6.716-15-15-15z" fill="#4e6ba6"/><path d="m301 366h-45v110h45c8.284 0 15-6.716 15-15v-80c0-8.284-6.716-15-15-15z" fill="#28487a"/><path d="m331 486h-150c-8.284 0-15-6.716-15-15s6.716-15 15-15h150c8.284 0 15 6.716 15 15s-6.716 15-15 15z" fill="#ecf9fd"/><path d="m331 456h-75v30h75c8.284 0 15-6.716 15-15s-6.716-15-15-15z" fill="#d9f3fc"/><path d="m497 296h-482c-8.284 0-15 6.716-15 15v70c0 8.284 6.716 15 15 15h482c8.284 0 15-6.716 15-15v-70c0-8.284-6.716-15-15-15z" fill="#ecf9fd"/><path d="m497 296h-241v100h241c8.284 0 15-6.716 15-15v-70c0-8.284-6.716-15-15-15z" fill="#d9f3fc"/><path d="m497 26h-482c-8.284 0-15 6.716-15 15v270h512v-270c0-8.284-6.716-15-15-15z" fill="#4e6ba6"/><path d="m497 26h-241v285h256v-270c0-8.284-6.716-15-15-15z" fill="#28487a"/><path d="m228.92 259.078c-1.845 0-3.721-.342-5.539-1.066-7.698-3.061-11.456-11.783-8.395-19.481l54.15-136.148c3.061-7.698 11.784-11.458 19.481-8.395 7.698 3.062 11.456 11.784 8.395 19.481l-54.15 136.147c-2.338 5.881-7.978 9.462-13.942 9.462z" fill="#f37"/><path d="m343.061 252.549c-2.552 0-5.137-.651-7.504-2.023-7.168-4.152-9.613-13.33-5.461-20.498l31.919-55.106-31.786-52.724c-4.277-7.095-1.993-16.313 5.102-20.591 7.096-4.277 16.313-1.993 20.591 5.102l36.363 60.315c2.823 4.683 2.874 10.531.133 15.263l-36.363 62.777c-2.781 4.802-7.817 7.485-12.994 7.485z" fill="#cc295f"/><path d="m168.939 252.549c-5.177.001-10.212-2.682-12.994-7.484l-36.363-62.777c-2.741-4.732-2.69-10.58.133-15.263l36.363-60.315c4.277-7.095 13.495-9.379 20.591-5.102 7.095 4.277 9.378 13.496 5.102 20.591l-31.786 52.724 31.919 55.106c4.152 7.169 1.708 16.346-5.461 20.498-2.366 1.371-4.953 2.022-7.504 2.022z" fill="#f37"/><path d="m288.619 93.988c-7.698-3.063-16.42.697-19.481 8.395l-13.138 33.03v81.174l41.013-103.117c3.062-7.698-.697-16.42-8.394-19.482z" fill="#cc295f"/></g></svg>